<svg xmlns="http://www.w3.org/2000/svg" xmlns:xlink="http://www.w3.org/1999/xlink" width="120.778" height="56.011" viewBox="0 0 120.778 56.011">
  <defs>
    <clipPath id="clip-path">
      <rect id="Rectangle_12" data-name="Rectangle 12" width="120.778" height="56.011" fill="none"/>
    </clipPath>
  </defs>
  <g id="Group_11" data-name="Group 11" transform="translate(0 0)">
    <g id="Group_8" data-name="Group 8" transform="translate(0 0)">
      <g id="Group_7" data-name="Group 7" clip-path="url(#clip-path)">
        <rect id="Rectangle_10" data-name="Rectangle 10" width="119.868" height="55.101" transform="translate(0.455 0.455)" fill="none" stroke="#fff" stroke-miterlimit="10" stroke-width="1.417"/>
        <rect id="Rectangle_11" data-name="Rectangle 11" width="117.934" height="53.167" transform="translate(1.422 1.422)" fill="none" stroke="#fff" stroke-miterlimit="10" stroke-width="1.417"/>
      </g>
    </g>
    <path id="Path_3" data-name="Path 3" d="M20.528,17.185l2.07,3.671h.1l2.094-3.671h3.818l-3.77,6.307L28.757,29.8H24.839L22.7,26.056h-.1L20.454,29.8H16.561l3.869-6.308-3.745-6.307Z" transform="translate(-5.922 -6.145)" fill="#fff"/>
    <rect id="Rectangle_13" data-name="Rectangle 13" width="5.913" height="2.563" transform="translate(25.786 17.348)" fill="#fff"/>
    <path id="Path_4" data-name="Path 4" d="M58.841,17.185l2.587,8.895h.1l2.587-8.895h3.868L63.818,29.8H59.136L54.973,17.185Z" transform="translate(-19.658 -6.145)" fill="#fff"/>
    <rect id="Rectangle_14" data-name="Rectangle 14" width="3.425" height="12.615" transform="translate(51.594 11.04)" fill="#fff"/>
    <g id="Group_10" data-name="Group 10" transform="translate(0 0)">
      <g id="Group_9" data-name="Group 9" clip-path="url(#clip-path)">
        <path id="Path_5" data-name="Path 5" d="M98.011,21.032a1.334,1.334,0,0,0-.459-.961,1.894,1.894,0,0,0-1.241-.344,2.494,2.494,0,0,0-.865.126,1.063,1.063,0,0,0-.5.342.829.829,0,0,0-.166.493.782.782,0,0,0,.082.41.927.927,0,0,0,.305.326,2.325,2.325,0,0,0,.536.263,5.965,5.965,0,0,0,.776.209l1.035.221a7.8,7.8,0,0,1,1.792.586,4.284,4.284,0,0,1,1.22.853,3.125,3.125,0,0,1,.7,1.1,3.9,3.9,0,0,1,.231,1.33,3.556,3.556,0,0,1-.622,2.106A3.8,3.8,0,0,1,99.08,29.4a7.489,7.489,0,0,1-2.743.45,7.734,7.734,0,0,1-2.868-.486,3.972,3.972,0,0,1-1.9-1.5,4.623,4.623,0,0,1-.681-2.6h3.252a1.926,1.926,0,0,0,.29.973,1.611,1.611,0,0,0,.729.6,2.83,2.83,0,0,0,1.124.2,2.682,2.682,0,0,0,.918-.136,1.229,1.229,0,0,0,.561-.375.893.893,0,0,0,.2-.549.8.8,0,0,0-.188-.508,1.555,1.555,0,0,0-.594-.394,6.526,6.526,0,0,0-1.115-.33l-1.256-.271a5.742,5.742,0,0,1-2.64-1.216,2.934,2.934,0,0,1-.958-2.331,3.467,3.467,0,0,1,.644-2.1,4.255,4.255,0,0,1,1.8-1.407,6.55,6.55,0,0,1,2.651-.506,6.287,6.287,0,0,1,2.642.511,3.976,3.976,0,0,1,1.722,1.438,3.906,3.906,0,0,1,.613,2.165Z" transform="translate(-32.503 -6.05)" fill="#fff"/>
        <rect id="Rectangle_15" data-name="Rectangle 15" width="3.425" height="12.615" transform="translate(72.328 11.04)" fill="#fff"/>
        <path id="Path_6" data-name="Path 6" d="M135.857,23.4a7.092,7.092,0,0,1-.819,3.551,5.477,5.477,0,0,1-2.21,2.187,6.859,6.859,0,0,1-6.218-.006,5.5,5.5,0,0,1-2.205-2.193,7.1,7.1,0,0,1-.816-3.539,7.129,7.129,0,0,1,.816-3.551,5.459,5.459,0,0,1,2.205-2.187,6.88,6.88,0,0,1,6.218,0,5.471,5.471,0,0,1,2.21,2.187,7.1,7.1,0,0,1,.819,3.551m-3.523,0a5.368,5.368,0,0,0-.3-1.912,2.448,2.448,0,0,0-4.625,0,5.353,5.353,0,0,0-.3,1.912,5.354,5.354,0,0,0,.3,1.913,2.448,2.448,0,0,0,4.625,0,5.369,5.369,0,0,0,.3-1.913" transform="translate(-44.195 -6.05)" fill="#fff"/>
        <path id="Path_7" data-name="Path 7" d="M159.269,17.185V29.8h-2.858l-4.558-6.628h-.074V29.8h-3.425V17.185h2.907l4.485,6.6h.1v-6.6Z" transform="translate(-53.052 -6.146)" fill="#fff"/>
        <path id="Path_8" data-name="Path 8" d="M16.922,61.3V58.841l4.706-3.893a10.683,10.683,0,0,0,.8-.73,2.822,2.822,0,0,0,.517-.705,1.784,1.784,0,0,0,.182-.807,1.6,1.6,0,0,0-.206-.832,1.406,1.406,0,0,0-.57-.533,1.8,1.8,0,0,0-.838-.188,1.757,1.757,0,0,0-.834.191,1.318,1.318,0,0,0-.558.56,1.89,1.89,0,0,0-.2.9H16.676a4.252,4.252,0,0,1,.6-2.291,3.908,3.908,0,0,1,1.688-1.479,5.906,5.906,0,0,1,2.556-.517A6.544,6.544,0,0,1,24.144,49a3.942,3.942,0,0,1,1.718,1.358,3.507,3.507,0,0,1,.606,2.051,3.7,3.7,0,0,1-.3,1.444,5.876,5.876,0,0,1-1.084,1.586,22.071,22.071,0,0,1-2.223,2.07l-1.183.985v.074H26.6V61.3Z" transform="translate(-5.963 -17.35)" fill="#008ef7"/>
        <path id="Path_9" data-name="Path 9" d="M43.175,61.65a5.491,5.491,0,0,1-2.969-.795,5.109,5.109,0,0,1-1.928-2.273,9.641,9.641,0,0,1,.009-7.1,4.933,4.933,0,0,1,1.922-2.212,6.178,6.178,0,0,1,5.934,0,4.97,4.97,0,0,1,1.928,2.214,8.267,8.267,0,0,1,.671,3.529,8.558,8.558,0,0,1-.678,3.572,5.1,5.1,0,0,1-1.925,2.27,5.447,5.447,0,0,1-2.966.786m0-2.784a1.677,1.677,0,0,0,1.457-.927,5.721,5.721,0,0,0,.563-2.916,7.243,7.243,0,0,0-.259-2.125,2.62,2.62,0,0,0-.714-1.222,1.549,1.549,0,0,0-1.047-.4,1.664,1.664,0,0,0-1.447.9,5.619,5.619,0,0,0-.573,2.846,7.527,7.527,0,0,0,.252,2.177,2.687,2.687,0,0,0,.718,1.26,1.54,1.54,0,0,0,1.05.407" transform="translate(-13.448 -17.35)" fill="#008ef7"/>
        <path id="Path_10" data-name="Path 10" d="M60.511,61.3V58.841l4.706-3.893a10.683,10.683,0,0,0,.8-.73,2.822,2.822,0,0,0,.517-.705,1.784,1.784,0,0,0,.182-.807,1.6,1.6,0,0,0-.206-.832,1.406,1.406,0,0,0-.57-.533,1.8,1.8,0,0,0-.838-.188,1.757,1.757,0,0,0-.834.191,1.322,1.322,0,0,0-.558.56,1.89,1.89,0,0,0-.2.9H60.265a4.252,4.252,0,0,1,.6-2.291,3.908,3.908,0,0,1,1.688-1.479,5.906,5.906,0,0,1,2.556-.517A6.544,6.544,0,0,1,67.733,49a3.942,3.942,0,0,1,1.718,1.358,3.507,3.507,0,0,1,.606,2.051,3.7,3.7,0,0,1-.3,1.444,5.876,5.876,0,0,1-1.084,1.586,22.071,22.071,0,0,1-2.223,2.07l-1.183.985v.074h4.927V61.3Z" transform="translate(-21.551 -17.35)" fill="#008ef7"/>
        <path id="Path_11" data-name="Path 11" d="M86.129,61.477a6.438,6.438,0,0,1-2.645-.515,4.393,4.393,0,0,1-1.814-1.42A3.479,3.479,0,0,1,81,57.46h3.45a1.072,1.072,0,0,0,.225.65,1.425,1.425,0,0,0,.6.446,2.244,2.244,0,0,0,.874.16,1.96,1.96,0,0,0,.838-.17,1.349,1.349,0,0,0,.567-.471,1.17,1.17,0,0,0,.2-.689,1.026,1.026,0,0,0-.231-.678,1.546,1.546,0,0,0-.662-.463,2.685,2.685,0,0,0-.98-.166H84.6V53.716h1.281a2.287,2.287,0,0,0,.9-.166,1.436,1.436,0,0,0,.61-.462,1.077,1.077,0,0,0,.213-.677,1.125,1.125,0,0,0-.179-.653,1.247,1.247,0,0,0-.513-.443,1.727,1.727,0,0,0-.761-.16,2.005,2.005,0,0,0-.834.166,1.388,1.388,0,0,0-.576.462,1.177,1.177,0,0,0-.216.678H81.251a3.472,3.472,0,0,1,.637-2.045,4.243,4.243,0,0,1,1.734-1.391,6.014,6.014,0,0,1,2.531-.506,6.088,6.088,0,0,1,2.473.474,4.066,4.066,0,0,1,1.681,1.3,3.091,3.091,0,0,1,.6,1.894,2.217,2.217,0,0,1-.724,1.737,3.176,3.176,0,0,1-1.863.8v.1a3.724,3.724,0,0,1,2.3.933,2.563,2.563,0,0,1,.758,1.925,3.075,3.075,0,0,1-.662,1.964,4.415,4.415,0,0,1-1.854,1.343,7.151,7.151,0,0,1-2.731.487" transform="translate(-28.967 -17.35)" fill="#008ef7"/>
      </g>
    </g>
  </g>
</svg>
